<svg width="100" height="78" viewBox="0 0 100 78" fill="none" xmlns="http://www.w3.org/2000/svg">
<path d="M49.9912 76.9845L5.03825 77L3.72709 76.9693L3.7154 76.9691H3.7037H3.63591C3.58882 76.9691 3.37004 76.9386 3.01766 76.4736C2.67746 76.0247 2.3283 75.3118 2.01722 74.3412C1.3987 72.4115 1 69.6832 1 66.625C1 68.1088 1.19137 69.4926 1.52686 70.5393C1.69279 71.057 1.91162 71.5485 2.20213 71.9319C2.48046 72.2992 2.95511 72.729 3.63591 72.729H3.69956L5.01069 72.7597L5.02238 72.76H5.03407C24.3454 72.76 37.1695 72.7523 49.9921 72.7445H89.3933H90.083L90.3281 72.0998L98.9348 49.4559L99 49.2842V51.8164L89.4338 76.9845C82.5206 76.9845 77.0756 76.9834 72.3248 76.9825L72.2368 76.9825C64.0961 76.9809 57.9871 76.9797 49.9959 76.9845H49.9918H49.9915H49.9912ZM10.6418 5.24H9.93732L9.70016 5.90335L1.05837 30.0747L1 30.2379V27.7984L10.581 1H96.3542C96.4026 1 96.6227 1.03129 96.9763 1.49787C97.3177 1.94839 97.6679 2.66352 97.9799 3.63689C98.6002 5.57227 99 8.30825 99 11.375C99 9.88265 98.8075 8.49113 98.4702 7.43879C98.3034 6.9183 98.0835 6.42451 97.7918 6.03958C97.5123 5.67071 97.0364 5.24001 96.3542 5.24H10.6418Z" fill="white" stroke="white" stroke-width="2"/>
</svg>
