<svg width="1440" height="768" viewBox="0 0 1440 768" fill="none" xmlns="http://www.w3.org/2000/svg">
<line x1="1143.37" y1="344" x2="1143.37" y2="359" stroke="white"/>
<line x1="1143.37" y1="409" x2="1143.37" y2="424" stroke="white"/>
<line x1="1187.18" y1="383.5" x2="1171.35" y2="383.5" stroke="white"/>
<line x1="1115.44" y1="383.5" x2="1099.62" y2="383.5" stroke="white"/>
<line x1="297.333" y1="225" x2="297.333" y2="240" stroke="white"/>
<line x1="297.333" y1="528" x2="297.333" y2="543" stroke="white"/>
<line x1="392.83" y1="383" x2="377.006" y2="383" stroke="white"/>
<path d="M206.111 383L190.288 383" stroke="white"/>
<path d="M397.049 383L1082.74 383" stroke="white" stroke-opacity="0.2"/>
<line x1="1179.79" y1="383.5" x2="1472" y2="383.5" stroke="white" stroke-opacity="0.2"/>
<path d="M-65 384L198.727 382.945" stroke="white" stroke-opacity="0.2"/>
<line x1="1143.37" y1="-2.07181e-08" x2="1143.37" y2="359" stroke="white" stroke-opacity="0.2"/>
<line x1="1143.37" y1="409" x2="1143.37" y2="768" stroke="white" stroke-opacity="0.2"/>
<line x1="1143.37" y1="409" x2="1143.37" y2="768" stroke="white" stroke-opacity="0.2"/>
<line x1="297.333" y1="-2.07181e-08" x2="297.333" y2="240" stroke="white" stroke-opacity="0.2"/>
<line x1="297.333" y1="528" x2="297.333" y2="768" stroke="white" stroke-opacity="0.2"/>
</svg>
